<!--?xml version="1.0" standalone="no"?-->              <svg id="sw-js-blob-svg" viewBox="0 0 100 100" xmlns="http://www.w3.org/2000/svg">                    <defs>                         <linearGradient id="sw-gradient" x1="0" x2="1" y1="1" y2="0">                            <stop id="stop1" stop-color="rgba(87.553, 248, 55, 1)" offset="0%"></stop>                            <stop id="stop2" stop-color="rgba(31, 251, 105.679, 1)" offset="100%"></stop>                        </linearGradient>                    </defs>                <path fill="url(#sw-gradient)" d="M21.3,-27.1C26.9,-20.8,30,-13.3,32.8,-4.8C35.5,3.8,37.8,13.5,34.7,21.3C31.7,29,23.3,34.9,14.2,37.5C5.2,40.1,-4.5,39.5,-13.9,36.7C-23.4,33.9,-32.7,29.1,-37.2,21.4C-41.7,13.7,-41.5,3.2,-38.5,-5.6C-35.5,-14.4,-29.7,-21.4,-22.8,-27.5C-15.9,-33.5,-8,-38.6,0,-38.5C7.9,-38.5,15.8,-33.4,21.3,-27.1Z" width="100%" height="100%" transform="translate(50 50)" stroke-width="0" style="transition: all 0.3s ease 0s;"></path>              </svg>