<!--?xml version="1.0" standalone="no"?-->              <svg id="sw-js-blob-svg" viewBox="0 0 100 100" xmlns="http://www.w3.org/2000/svg" version="1.1">                    <defs>                         <linearGradient id="sw-gradient" x1="0" x2="1" y1="1" y2="0">                            <stop id="stop1" stop-color="rgba(55, 248, 244.731, 1)" offset="0%"></stop>                            <stop id="stop2" stop-color="rgba(31, 38.608, 251, 1)" offset="100%"></stop>                        </linearGradient>                    </defs>                <path fill="url(#sw-gradient)" d="M23.5,-33.8C29.9,-27.8,34.1,-20.1,35.4,-12.4C36.7,-4.7,35.1,3.1,32.7,10.7C30.3,18.3,27.2,25.7,21.6,30.5C16,35.4,8,37.6,0.1,37.5C-7.9,37.4,-15.8,35,-22.3,30.5C-28.8,26,-33.8,19.3,-37,11.6C-40.1,3.8,-41.3,-5,-38.3,-11.9C-35.2,-18.7,-28,-23.7,-21,-29.5C-13.9,-35.4,-6.9,-42.1,0.8,-43.3C8.6,-44.4,17.2,-39.9,23.5,-33.8Z" width="100%" height="100%" transform="translate(50 50)" stroke-width="0" style="transition: all 0.3s ease 0s;"></path>              </svg>