<!--?xml version="1.0" standalone="no"?-->              <svg id="sw-js-blob-svg" viewBox="0 0 100 100" xmlns="http://www.w3.org/2000/svg">                    <defs>                         <linearGradient id="sw-gradient" x1="0" x2="1" y1="1" y2="0">                            <stop id="stop1" stop-color="rgba(40.91, 0, 242.549, 1)" offset="0%"></stop>                            <stop id="stop2" stop-color="rgba(112.821, 31, 251, 1)" offset="100%"></stop>                        </linearGradient>                    </defs>                <path fill="url(#sw-gradient)" d="M9.6,-16.4C10.7,-12.4,8.7,-7.3,12.9,-2.3C17,2.6,27.2,7.4,29.3,12.2C31.4,16.9,25.3,21.7,19,26.4C12.8,31.1,6.4,35.8,-1.2,37.5C-8.9,39.2,-17.7,37.9,-20.4,32.1C-23.1,26.2,-19.6,15.7,-21.7,7.5C-23.7,-0.7,-31.3,-6.7,-32.3,-12.6C-33.2,-18.5,-27.6,-24.4,-21.1,-26.6C-14.7,-28.9,-7.3,-27.5,-1.5,-25.4C4.2,-23.3,8.5,-20.4,9.6,-16.4Z" width="100%" height="100%" transform="translate(50 50)" stroke-width="0" style="transition: all 0.3s ease 0s;"></path>              </svg>